<svg xmlns="http://www.w3.org/2000/svg" viewBox="0 0 24 24">
  <path fill="currentColor" d="M6,14C5.31,14 4.67,14.28 4.22,14.78C3.77,14.28 3.13,14 2.44,14C1.09,14 0,15.09 0,16.44C0,17.8 1.09,18.88 2.44,18.88H6C7.31,18.88 8.38,17.8 8.38,16.44C8.38,15.09 7.31,14 6,14M21.56,14C20.88,14 20.23,14.28 19.78,14.78C19.33,14.28 18.69,14 18,14C16.69,14 15.62,15.09 15.62,16.44C15.62,17.8 16.69,18.88 18,18.88H21.56C22.91,18.88 24,17.8 24,16.44C24,15.09 22.91,14 21.56,14M4,6.5A2.5,2.5 0 0,0 6.5,9H17.5A2.5,2.5 0 0,0 20,6.5A2.5,2.5 0 0,0 17.5,4H6.5A2.5,2.5 0 0,0 4,6.5M6.5,7.5H17.5A1,1 0 0,1 18.5,6.5A1,1 0 0,1 17.5,5.5H6.5A1,1 0 0,1 5.5,6.5A1,1 0 0,1 6.5,7.5M7,10V13H9V10H7M15,10V13H17V10H15M11,10V13H13V10H11Z"/>
</svg>
